<svg width="120" height="120" viewBox="0 0 120 120" fill="none" xmlns="http://www.w3.org/2000/svg">
<path d="M110 0H10C4.47715 0 0 4.47715 0 10V110C0 115.523 4.47715 120 10 120H110C115.523 120 120 115.523 120 110V10C120 4.47715 115.523 0 110 0Z" fill="#6AD1CA" fill-opacity="0.37"/>
<path d="M79.5759 22.6548C78.7729 22.8044 78.1401 23.4243 77.9874 24.211C77.9797 24.2504 77.9245 24.2504 77.917 24.211C77.7643 23.4243 77.1315 22.8044 76.3285 22.6548C76.2883 22.6473 76.2883 22.5933 76.3285 22.5857C77.1315 22.4361 77.7643 21.8163 77.917 21.0296C77.9247 20.9901 77.9799 20.9901 77.9874 21.0296C78.1401 21.8163 78.7729 22.4361 79.5759 22.5857C79.6161 22.5933 79.6161 22.6473 79.5759 22.6548Z" fill="#F5C84C"/>
<path d="M62.0832 78.0544C61.5201 78.1593 61.0761 78.5941 60.9691 79.1459C60.9637 79.1736 60.925 79.1736 60.9197 79.1459C60.8127 78.5941 60.3688 78.1593 59.8056 78.0544C59.7774 78.0492 59.7774 78.0113 59.8056 78.006C60.3688 77.9011 60.8127 77.4663 60.9197 76.9146C60.9252 76.8869 60.9639 76.8869 60.9691 76.9146C61.0761 77.4663 61.5201 77.9011 62.0832 78.006C62.1115 78.0113 62.1115 78.049 62.0832 78.0544Z" fill="#87D147"/>
<path d="M79.4926 27.8001C79.8536 27.8001 80.1462 27.5075 80.1462 27.1465C80.1462 26.7856 79.8536 26.493 79.4926 26.493C79.1317 26.493 78.8391 26.7856 78.8391 27.1465C78.8391 27.5075 79.1317 27.8001 79.4926 27.8001Z" fill="#FC657E"/>
<path d="M56.6269 76.2853C56.9878 76.2853 57.2804 75.9927 57.2804 75.6318C57.2804 75.2709 56.9878 74.9783 56.6269 74.9783C56.266 74.9783 55.9734 75.2709 55.9734 75.6318C55.9734 75.9927 56.266 76.2853 56.6269 76.2853Z" fill="#70D6F9"/>
<path d="M83.5214 52.3191H83.1684V51.9661C83.1684 51.7018 82.9542 51.4875 82.6898 51.4875C82.4254 51.4875 82.2112 51.7018 82.2112 51.9661V52.3191H81.8582C81.5939 52.3191 81.3796 52.5333 81.3796 52.7977C81.3796 53.0621 81.5939 53.2763 81.8582 53.2763H82.2112V53.6293C82.2112 53.8936 82.4254 54.1079 82.6898 54.1079C82.9542 54.1079 83.1684 53.8936 83.1684 53.6293V53.2763H83.5214C83.7857 53.2763 84 53.0621 84 52.7977C84 52.5333 83.7855 52.3191 83.5214 52.3191Z" fill="#70D6F9"/>
<path d="M80.7629 48.9836C81.1238 48.9836 81.4164 48.691 81.4164 48.33C81.4164 47.9691 81.1238 47.6765 80.7629 47.6765C80.402 47.6765 80.1094 47.9691 80.1094 48.33C80.1094 48.691 80.402 48.9836 80.7629 48.9836Z" fill="#F5C84C"/>
<path d="M42 68.8125V27.8109C42 26.1541 43.3431 24.8109 45 24.8109H68.2551C69.0432 24.8109 69.7996 25.121 70.3609 25.6741L76.6745 31.896C77.2466 32.4598 77.5687 33.2295 77.5687 34.0328V68.8125C77.5687 70.4693 76.2256 71.8125 74.5687 71.8125H45C43.3431 71.8125 42 70.4693 42 68.8125Z" fill="#F3F3DB" stroke="#231F20"/>
<path d="M68.6765 33.5738C67.0597 31.9806 67.2329 24.9724 67.2329 24.9724L70.5819 26.0812L73.7577 29.257L76.2983 31.7976C77.5686 33.0679 77.57 33.3588 76.7602 34.3705C76.7602 34.3705 70.2932 35.1671 68.6765 33.5738Z" fill="#6AD1CA" stroke="#231F20" stroke-linecap="round" stroke-linejoin="round"/>
<path d="M42 59.1093H77.5687V68.8124C77.5687 70.4693 76.2256 71.8124 74.5687 71.8124H45C43.3431 71.8124 42 70.4693 42 68.8124V59.1093Z" fill="#6AD1CA" stroke="#231F20"/>
<path d="M44.4492 45.8583V45.2333L46.9492 44.1325V44.8516L45.2376 45.5387L45.2607 45.5014V45.5902L45.2376 45.5529L46.9492 46.2401V46.9592L44.4492 45.8583ZM47.7145 47V43.3636H48.4709V44.7308H48.494C48.5271 44.6574 48.575 44.5829 48.6378 44.5071C48.7017 44.4302 48.7846 44.3662 48.8864 44.3153C48.9893 44.2633 49.1172 44.2372 49.2699 44.2372C49.4688 44.2372 49.6522 44.2893 49.8203 44.3935C49.9884 44.4964 50.1228 44.6521 50.2234 44.8604C50.324 45.0676 50.3743 45.3274 50.3743 45.6399C50.3743 45.9441 50.3252 46.201 50.2269 46.4105C50.1299 46.6188 49.9973 46.7769 49.8292 46.8846C49.6623 46.9911 49.4753 47.0444 49.2681 47.0444C49.1213 47.0444 48.9964 47.0201 48.8935 46.9716C48.7917 46.9231 48.7082 46.8621 48.6431 46.7887C48.578 46.7141 48.5283 46.639 48.494 46.5632H48.4602V47H47.7145ZM48.4549 45.6364C48.4549 45.7985 48.4774 45.94 48.5224 46.0607C48.5674 46.1815 48.6325 46.2756 48.7177 46.343C48.8029 46.4093 48.9065 46.4425 49.0284 46.4425C49.1515 46.4425 49.2557 46.4087 49.3409 46.3413C49.4261 46.2726 49.4906 46.1779 49.5344 46.0572C49.5794 45.9353 49.6019 45.795 49.6019 45.6364C49.6019 45.4789 49.58 45.3404 49.5362 45.2209C49.4924 45.1013 49.4279 45.0078 49.3427 44.9403C49.2575 44.8729 49.1527 44.8391 49.0284 44.8391C48.9053 44.8391 48.8011 44.8717 48.7159 44.9368C48.6319 45.0019 48.5674 45.0942 48.5224 45.2138C48.4774 45.3333 48.4549 45.4742 48.4549 45.6364ZM52.1112 47.0533C51.8354 47.0533 51.5969 46.9947 51.3957 46.8775C51.1956 46.7591 51.0412 46.5946 50.9323 46.3839C50.8234 46.172 50.7689 45.9264 50.7689 45.647C50.7689 45.3653 50.8234 45.1191 50.9323 44.9084C51.0412 44.6965 51.1956 44.532 51.3957 44.4148C51.5969 44.2964 51.8354 44.2372 52.1112 44.2372C52.387 44.2372 52.625 44.2964 52.825 44.4148C53.0262 44.532 53.1813 44.6965 53.2902 44.9084C53.3991 45.1191 53.4536 45.3653 53.4536 45.647C53.4536 45.9264 53.3991 46.172 53.2902 46.3839C53.1813 46.5946 53.0262 46.7591 52.825 46.8775C52.625 46.9947 52.387 47.0533 52.1112 47.0533ZM52.1148 46.4673C52.2403 46.4673 52.345 46.4318 52.4291 46.3608C52.5131 46.2886 52.5764 46.1903 52.6191 46.0661C52.6628 45.9418 52.6847 45.8003 52.6847 45.6417C52.6847 45.4831 52.6628 45.3416 52.6191 45.2173C52.5764 45.093 52.5131 44.9948 52.4291 44.9226C52.345 44.8504 52.2403 44.8143 52.1148 44.8143C51.9881 44.8143 51.8816 44.8504 51.7952 44.9226C51.71 44.9948 51.6454 45.093 51.6017 45.2173C51.559 45.3416 51.5377 45.4831 51.5377 45.6417C51.5377 45.8003 51.559 45.9418 51.6017 46.0661C51.6454 46.1903 51.71 46.2886 51.7952 46.3608C51.8816 46.4318 51.9881 46.4673 52.1148 46.4673ZM55.1776 47.0533C54.9018 47.0533 54.6633 46.9947 54.4621 46.8775C54.262 46.7591 54.1076 46.5946 53.9987 46.3839C53.8898 46.172 53.8353 45.9264 53.8353 45.647C53.8353 45.3653 53.8898 45.1191 53.9987 44.9084C54.1076 44.6965 54.262 44.532 54.4621 44.4148C54.6633 44.2964 54.9018 44.2372 55.1776 44.2372C55.4535 44.2372 55.6914 44.2964 55.8914 44.4148C56.0927 44.532 56.2477 44.6965 56.3566 44.9084C56.4655 45.1191 56.52 45.3653 56.52 45.647C56.52 45.9264 56.4655 46.172 56.3566 46.3839C56.2477 46.5946 56.0927 46.7591 55.8914 46.8775C55.6914 46.9947 55.4535 47.0533 55.1776 47.0533ZM55.1812 46.4673C55.3067 46.4673 55.4114 46.4318 55.4955 46.3608C55.5795 46.2886 55.6428 46.1903 55.6855 46.0661C55.7293 45.9418 55.7512 45.8003 55.7512 45.6417C55.7512 45.4831 55.7293 45.3416 55.6855 45.2173C55.6428 45.093 55.5795 44.9948 55.4955 44.9226C55.4114 44.8504 55.3067 44.8143 55.1812 44.8143C55.0545 44.8143 54.948 44.8504 54.8616 44.9226C54.7764 44.9948 54.7119 45.093 54.6681 45.2173C54.6254 45.3416 54.6041 45.4831 54.6041 45.6417C54.6041 45.8003 54.6254 45.9418 54.6681 46.0661C54.7119 46.1903 54.7764 46.2886 54.8616 46.3608C54.948 46.4318 55.0545 46.4673 55.1812 46.4673ZM58.4624 44.2727V44.8409H56.82V44.2727H58.4624ZM57.1929 43.6193H57.9493V46.1619C57.9493 46.2318 57.96 46.2862 57.9813 46.3253C58.0026 46.3632 58.0322 46.3898 58.07 46.4052C58.1091 46.4206 58.1541 46.4283 58.205 46.4283C58.2405 46.4283 58.276 46.4253 58.3115 46.4194C58.347 46.4123 58.3743 46.407 58.3932 46.4034L58.5122 46.9663C58.4743 46.9781 58.421 46.9917 58.3524 47.0071C58.2837 47.0237 58.2003 47.0337 58.102 47.0373C57.9197 47.0444 57.7599 47.0201 57.6226 46.9645C57.4865 46.9089 57.3805 46.8224 57.3048 46.7053C57.229 46.5881 57.1917 46.4401 57.1929 46.2614V43.6193ZM61.1902 45.0504L60.4977 45.093C60.4859 45.0339 60.4604 44.9806 60.4213 44.9332C60.3823 44.8847 60.3308 44.8462 60.2669 44.8178C60.2041 44.7882 60.129 44.7734 60.0414 44.7734C59.9242 44.7734 59.8253 44.7983 59.7449 44.848C59.6644 44.8965 59.6241 44.9616 59.6241 45.0433C59.6241 45.1084 59.6502 45.1635 59.7022 45.2085C59.7543 45.2534 59.8437 45.2895 59.9703 45.3168L60.464 45.4162C60.7291 45.4706 60.9268 45.5582 61.057 45.679C61.1872 45.7997 61.2523 45.9583 61.2523 46.1548C61.2523 46.3336 61.1996 46.4904 61.0943 46.6254C60.9901 46.7603 60.8469 46.8656 60.6646 46.9414C60.4835 47.016 60.2746 47.0533 60.0378 47.0533C59.6768 47.0533 59.3891 46.9781 59.1749 46.8278C58.9618 46.6763 58.8369 46.4703 58.8002 46.2099L59.5442 46.1708C59.5667 46.2809 59.6212 46.3649 59.7076 46.4229C59.794 46.4798 59.9047 46.5082 60.0396 46.5082C60.1722 46.5082 60.2787 46.4827 60.3592 46.4318C60.4409 46.3797 60.4823 46.3129 60.4835 46.2312C60.4823 46.1625 60.4533 46.1063 60.3965 46.0625C60.3397 46.0175 60.2521 45.9832 60.1337 45.9595L59.6614 45.8654C59.3951 45.8121 59.1968 45.7198 59.0666 45.5884C58.9376 45.457 58.873 45.2895 58.873 45.0859C58.873 44.9107 58.9204 44.7598 59.0151 44.6332C59.111 44.5065 59.2453 44.4089 59.4181 44.3402C59.5922 44.2715 59.7958 44.2372 60.0289 44.2372C60.3734 44.2372 60.6445 44.31 60.8422 44.4556C61.041 44.6012 61.157 44.7995 61.1902 45.0504ZM63.1792 44.2727V44.8409H61.5368V44.2727H63.1792ZM61.9097 43.6193H62.6661V46.1619C62.6661 46.2318 62.6768 46.2862 62.6981 46.3253C62.7194 46.3632 62.749 46.3898 62.7868 46.4052C62.8259 46.4206 62.8709 46.4283 62.9218 46.4283C62.9573 46.4283 62.9928 46.4253 63.0283 46.4194C63.0638 46.4123 63.0911 46.407 63.11 46.4034L63.229 46.9663C63.1911 46.9781 63.1378 46.9917 63.0692 47.0071C63.0005 47.0237 62.9171 47.0337 62.8188 47.0373C62.6365 47.0444 62.4767 47.0201 62.3394 46.9645C62.2033 46.9089 62.0973 46.8224 62.0216 46.7053C61.9458 46.5881 61.9085 46.4401 61.9097 46.2614V43.6193ZM63.672 47V44.2727H64.4053V44.7486H64.4337C64.4834 44.5793 64.5669 44.4515 64.684 44.3651C64.8012 44.2775 64.9362 44.2337 65.0889 44.2337C65.1267 44.2337 65.1676 44.236 65.2114 44.2408C65.2552 44.2455 65.2936 44.252 65.3268 44.2603V44.9315C65.2913 44.9208 65.2422 44.9113 65.1794 44.9031C65.1167 44.8948 65.0593 44.8906 65.0072 44.8906C64.8959 44.8906 64.7965 44.9149 64.7089 44.9634C64.6225 45.0108 64.5538 45.0771 64.5029 45.1623C64.4532 45.2475 64.4284 45.3458 64.4284 45.457V47H63.672ZM66.4174 47.0515C66.2434 47.0515 66.0884 47.0213 65.9522 46.9609C65.8161 46.8994 65.7084 46.8088 65.6291 46.6893C65.551 46.5685 65.5119 46.4182 65.5119 46.2383C65.5119 46.0868 65.5397 45.9595 65.5953 45.8565C65.651 45.7536 65.7267 45.6707 65.8226 45.608C65.9185 45.5452 66.0274 45.4979 66.1493 45.4659C66.2724 45.4339 66.4015 45.4115 66.5364 45.3984C66.695 45.3819 66.8229 45.3665 66.9199 45.3523C67.017 45.3369 67.0874 45.3144 67.1312 45.2848C67.175 45.2552 67.1969 45.2114 67.1969 45.1534V45.1428C67.1969 45.0303 67.1614 44.9433 67.0904 44.8817C67.0205 44.8202 66.9211 44.7894 66.7921 44.7894C66.656 44.7894 66.5476 44.8196 66.4672 44.88C66.3867 44.9392 66.3334 45.0137 66.3074 45.1037L65.6078 45.0469C65.6433 44.8812 65.7131 44.7379 65.8173 44.6172C65.9215 44.4953 66.0558 44.4018 66.2203 44.3366C66.3861 44.2704 66.5778 44.2372 66.7956 44.2372C66.9471 44.2372 67.0922 44.255 67.2306 44.2905C67.3703 44.326 67.494 44.381 67.6017 44.4556C67.7106 44.5302 67.7965 44.6261 67.8592 44.7433C67.9219 44.8593 67.9533 44.9983 67.9533 45.1605V47H67.236V46.6218H67.2147C67.1709 46.707 67.1123 46.7822 67.0389 46.8473C66.9655 46.9112 66.8773 46.9615 66.7743 46.9982C66.6713 47.0337 66.5524 47.0515 66.4174 47.0515ZM66.6341 46.5295C66.7453 46.5295 66.8436 46.5076 66.9288 46.4638C67.014 46.4188 67.0809 46.3584 67.1294 46.2827C67.178 46.2069 67.2022 46.1211 67.2022 46.0252V45.7358C67.1786 45.7512 67.146 45.7654 67.1046 45.7784C67.0643 45.7902 67.0188 45.8015 66.9679 45.8121C66.917 45.8216 66.8661 45.8305 66.8152 45.8388C66.7643 45.8459 66.7181 45.8524 66.6767 45.8583C66.5879 45.8713 66.5104 45.892 66.4441 45.9205C66.3778 45.9489 66.3263 45.9873 66.2896 46.0359C66.2529 46.0832 66.2346 46.1424 66.2346 46.2134C66.2346 46.3164 66.2718 46.3951 66.3464 46.4496C66.4222 46.5028 66.5181 46.5295 66.6341 46.5295ZM68.5401 48.0227V44.2727H69.2859V44.7308H69.3196C69.3527 44.6574 69.4007 44.5829 69.4634 44.5071C69.5273 44.4302 69.6102 44.3662 69.712 44.3153C69.815 44.2633 69.9428 44.2372 70.0955 44.2372C70.2944 44.2372 70.4779 44.2893 70.646 44.3935C70.814 44.4964 70.9484 44.6521 71.049 44.8604C71.1496 45.0676 71.1999 45.3274 71.1999 45.6399C71.1999 45.9441 71.1508 46.201 71.0526 46.4105C70.9555 46.6188 70.8229 46.7769 70.6548 46.8846C70.4879 46.9911 70.3009 47.0444 70.0938 47.0444C69.947 47.0444 69.8221 47.0201 69.7191 46.9716C69.6173 46.9231 69.5339 46.8621 69.4688 46.7887C69.4036 46.7141 69.3539 46.639 69.3196 46.5632H69.2965V48.0227H68.5401ZM69.2805 45.6364C69.2805 45.7985 69.303 45.94 69.348 46.0607C69.393 46.1815 69.4581 46.2756 69.5433 46.343C69.6286 46.4093 69.7321 46.4425 69.854 46.4425C69.9772 46.4425 70.0813 46.4087 70.1665 46.3413C70.2518 46.2726 70.3163 46.1779 70.3601 46.0572C70.4051 45.9353 70.4276 45.795 70.4276 45.6364C70.4276 45.4789 70.4057 45.3404 70.3619 45.2209C70.3181 45.1013 70.2536 45.0078 70.1683 44.9403C70.0831 44.8729 69.9783 44.8391 69.854 44.8391C69.7309 44.8391 69.6268 44.8717 69.5415 44.9368C69.4575 45.0019 69.393 45.0942 69.348 45.2138C69.303 45.3333 69.2805 45.4742 69.2805 45.6364ZM74.3516 45.8583L71.8516 46.9592V46.2401L73.5632 45.5529L73.5401 45.5902V45.5014L73.5632 45.5387L71.8516 44.8516V44.1325L74.3516 45.2333V45.8583Z" fill="black"/>
<path d="M44.3161 67V63.3636H45.772C46.0395 63.3636 46.2627 63.4033 46.4414 63.4826C46.6201 63.5619 46.7545 63.672 46.8445 63.8129C46.9344 63.9525 46.9794 64.1135 46.9794 64.2958C46.9794 64.4379 46.951 64.5627 46.8942 64.6705C46.8374 64.777 46.7592 64.8646 46.6598 64.9332C46.5616 65.0007 46.4491 65.0487 46.3224 65.0771V65.1126C46.4609 65.1185 46.5906 65.1576 46.7113 65.2298C46.8332 65.302 46.9321 65.4032 47.0078 65.5334C47.0836 65.6624 47.1214 65.8163 47.1214 65.995C47.1214 66.188 47.0735 66.3602 46.9776 66.5117C46.8829 66.6621 46.7427 66.781 46.5568 66.8686C46.371 66.9562 46.1419 67 45.8697 67H44.3161ZM45.0849 66.3714H45.7116C45.9259 66.3714 46.0821 66.3306 46.1804 66.2489C46.2786 66.1661 46.3278 66.056 46.3278 65.9187C46.3278 65.8181 46.3035 65.7293 46.255 65.6523C46.2064 65.5754 46.1372 65.515 46.0472 65.4712C45.9585 65.4274 45.8525 65.4055 45.7294 65.4055H45.0849V66.3714ZM45.0849 64.8853H45.6548C45.7602 64.8853 45.8537 64.867 45.9354 64.8303C46.0182 64.7924 46.0833 64.7391 46.1307 64.6705C46.1792 64.6018 46.2035 64.5195 46.2035 64.4237C46.2035 64.2923 46.1567 64.1863 46.0632 64.1058C45.9709 64.0253 45.8395 63.9851 45.669 63.9851H45.0849V64.8853ZM50.9633 65.1818C50.9633 65.5784 50.8882 65.9157 50.7378 66.1939C50.5887 66.4721 50.3851 66.6845 50.127 66.8313C49.8702 66.9769 49.5814 67.0497 49.2606 67.0497C48.9374 67.0497 48.6474 66.9763 48.3905 66.8295C48.1337 66.6828 47.9307 66.4703 47.7815 66.1921C47.6324 65.9139 47.5578 65.5772 47.5578 65.1818C47.5578 64.7853 47.6324 64.4479 47.7815 64.1697C47.9307 63.8916 48.1337 63.6797 48.3905 63.5341C48.6474 63.3873 48.9374 63.3139 49.2606 63.3139C49.5814 63.3139 49.8702 63.3873 50.127 63.5341C50.3851 63.6797 50.5887 63.8916 50.7378 64.1697C50.8882 64.4479 50.9633 64.7853 50.9633 65.1818ZM50.1839 65.1818C50.1839 64.925 50.1454 64.7083 50.0684 64.532C49.9927 64.3556 49.8856 64.2218 49.7471 64.1307C49.6086 64.0395 49.4464 63.994 49.2606 63.994C49.0747 63.994 48.9126 64.0395 48.7741 64.1307C48.6356 64.2218 48.5278 64.3556 48.4509 64.532C48.3751 64.7083 48.3373 64.925 48.3373 65.1818C48.3373 65.4387 48.3751 65.6553 48.4509 65.8317C48.5278 66.008 48.6356 66.1418 48.7741 66.233C48.9126 66.3241 49.0747 66.3697 49.2606 66.3697C49.4464 66.3697 49.6086 66.3241 49.7471 66.233C49.8856 66.1418 49.9927 66.008 50.0684 65.8317C50.1454 65.6553 50.1839 65.4387 50.1839 65.1818ZM54.8745 65.1818C54.8745 65.5784 54.7993 65.9157 54.649 66.1939C54.4998 66.4721 54.2962 66.6845 54.0382 66.8313C53.7813 66.9769 53.4925 67.0497 53.1717 67.0497C52.8485 67.0497 52.5585 66.9763 52.3017 66.8295C52.0448 66.6828 51.8418 66.4703 51.6926 66.1921C51.5435 65.9139 51.4689 65.5772 51.4689 65.1818C51.4689 64.7853 51.5435 64.4479 51.6926 64.1697C51.8418 63.8916 52.0448 63.6797 52.3017 63.5341C52.5585 63.3873 52.8485 63.3139 53.1717 63.3139C53.4925 63.3139 53.7813 63.3873 54.0382 63.5341C54.2962 63.6797 54.4998 63.8916 54.649 64.1697C54.7993 64.4479 54.8745 64.7853 54.8745 65.1818ZM54.095 65.1818C54.095 64.925 54.0565 64.7083 53.9796 64.532C53.9038 64.3556 53.7967 64.2218 53.6582 64.1307C53.5197 64.0395 53.3575 63.994 53.1717 63.994C52.9859 63.994 52.8237 64.0395 52.6852 64.1307C52.5467 64.2218 52.439 64.3556 52.362 64.532C52.2863 64.7083 52.2484 64.925 52.2484 65.1818C52.2484 65.4387 52.2863 65.6553 52.362 65.8317C52.439 66.008 52.5467 66.1418 52.6852 66.233C52.8237 66.3241 52.9859 66.3697 53.1717 66.3697C53.3575 66.3697 53.5197 66.3241 53.6582 66.233C53.7967 66.1418 53.9038 66.008 53.9796 65.8317C54.0565 65.6553 54.095 65.4387 54.095 65.1818ZM55.1395 63.9975V63.3636H58.126V63.9975H57.0127V67H56.2528V63.9975H55.1395ZM60.5905 64.4094C60.5763 64.2662 60.5153 64.1549 60.4076 64.0756C60.2999 63.9963 60.1537 63.9567 59.969 63.9567C59.8435 63.9567 59.7376 63.9744 59.6512 64.0099C59.5648 64.0443 59.4985 64.0922 59.4523 64.1538C59.4073 64.2153 59.3849 64.2852 59.3849 64.3633C59.3825 64.4284 59.3961 64.4852 59.4257 64.5337C59.4565 64.5823 59.4985 64.6243 59.5518 64.6598C59.605 64.6941 59.6666 64.7243 59.7364 64.7504C59.8063 64.7752 59.8808 64.7965 59.9601 64.8143L60.2868 64.8924C60.4455 64.9279 60.5911 64.9753 60.7236 65.0344C60.8562 65.0936 60.971 65.1664 61.0681 65.2528C61.1652 65.3393 61.2403 65.4411 61.2936 65.5582C61.348 65.6754 61.3759 65.8098 61.377 65.9613C61.3759 66.1838 61.319 66.3768 61.2066 66.5401C61.0953 66.7023 60.9343 66.8284 60.7236 66.9183C60.5141 67.0071 60.2614 67.0515 59.9655 67.0515C59.6719 67.0515 59.4162 67.0065 59.1984 66.9165C58.9818 66.8266 58.8125 66.6934 58.6906 66.517C58.5699 66.3395 58.5065 66.1199 58.5006 65.8583H59.2446C59.2529 65.9802 59.2878 66.082 59.3493 66.1637C59.4121 66.2442 59.4955 66.3052 59.5997 66.3466C59.705 66.3868 59.824 66.407 59.9566 66.407C60.0868 66.407 60.1998 66.388 60.2957 66.3501C60.3928 66.3123 60.468 66.2596 60.5212 66.1921C60.5745 66.1246 60.6011 66.0471 60.6011 65.9595C60.6011 65.8778 60.5769 65.8092 60.5283 65.7536C60.481 65.6979 60.4111 65.6506 60.3188 65.6115C60.2277 65.5724 60.1158 65.5369 59.9832 65.505L59.5873 65.4055C59.2807 65.331 59.0386 65.2144 58.8611 65.0558C58.6835 64.8971 58.5953 64.6835 58.5965 64.4148C58.5953 64.1946 58.6539 64.0022 58.7723 63.8377C58.8918 63.6732 59.0558 63.5447 59.2641 63.4524C59.4724 63.3601 59.7092 63.3139 59.9743 63.3139C60.2442 63.3139 60.4798 63.3601 60.681 63.4524C60.8834 63.5447 61.0409 63.6732 61.1533 63.8377C61.2658 64.0022 61.3238 64.1928 61.3273 64.4094H60.5905ZM61.7557 63.9975V63.3636H64.7422V63.9975H63.6289V67H62.869V63.9975H61.7557ZM65.234 67V63.3636H66.6687C66.9433 63.3636 67.1777 63.4128 67.3718 63.511C67.5671 63.6081 67.7157 63.746 67.8175 63.9247C67.9205 64.1023 67.9719 64.3112 67.9719 64.5515C67.9719 64.793 67.9199 65.0007 67.8157 65.1747C67.7115 65.3475 67.5606 65.4801 67.3629 65.5724C67.1664 65.6648 66.9285 65.7109 66.6491 65.7109H65.6886V65.093H66.5249C66.6716 65.093 66.7936 65.0729 66.8906 65.0327C66.9877 64.9924 67.0599 64.9321 67.1072 64.8516C67.1558 64.7711 67.18 64.671 67.18 64.5515C67.18 64.4308 67.1558 64.329 67.1072 64.2461C67.0599 64.1632 66.9871 64.1005 66.8888 64.0579C66.7918 64.0141 66.6693 63.9922 66.5213 63.9922H66.0028V67H65.234ZM67.1978 65.3452L68.1016 67H67.2528L66.3686 65.3452H67.1978ZM69.142 67H68.3182L69.5735 63.3636H70.5643L71.8178 67H70.994L70.0831 64.1946H70.0547L69.142 67ZM69.0906 65.5707H71.0366V66.1708H69.0906V65.5707ZM72.2555 67V63.3636H73.6902C73.966 63.3636 74.2009 63.4163 74.3951 63.5217C74.5892 63.6258 74.7372 63.7708 74.839 63.9567C74.9419 64.1413 74.9934 64.3544 74.9934 64.5959C74.9934 64.8374 74.9413 65.0504 74.8372 65.2351C74.733 65.4197 74.5821 65.5636 74.3844 65.6665C74.1879 65.7695 73.95 65.821 73.6706 65.821H72.7562V65.2049H73.5463C73.6943 65.2049 73.8162 65.1795 73.9121 65.1286C74.0092 65.0765 74.0814 65.0049 74.1287 64.9137C74.1773 64.8214 74.2015 64.7154 74.2015 64.5959C74.2015 64.4751 74.1773 64.3698 74.1287 64.2798C74.0814 64.1887 74.0092 64.1183 73.9121 64.0685C73.815 64.0176 73.6919 63.9922 73.5428 63.9922H73.0243V67H72.2555Z" fill="#070707"/>
<path d="M38.4425 95V89.9091H40.4808C40.8554 89.9091 41.1677 89.9646 41.418 90.0756C41.6682 90.1867 41.8563 90.3408 41.9822 90.538C42.1082 90.7335 42.1712 90.9589 42.1712 91.2141C42.1712 91.413 42.1314 91.5878 42.0518 91.7386C41.9723 91.8878 41.8629 92.0104 41.7237 92.1065C41.5862 92.201 41.4287 92.2681 41.2514 92.3079V92.3576C41.4453 92.3659 41.6268 92.4206 41.7958 92.5217C41.9665 92.6228 42.1049 92.7644 42.2109 92.9467C42.317 93.1274 42.37 93.3428 42.37 93.593C42.37 93.8632 42.3029 94.1043 42.1687 94.3164C42.0361 94.5269 41.8397 94.6934 41.5795 94.8161C41.3194 94.9387 40.9987 95 40.6175 95H38.4425ZM39.5188 94.12H40.3963C40.6963 94.12 40.915 94.0629 41.0526 93.9485C41.1901 93.8325 41.2589 93.6784 41.2589 93.4862C41.2589 93.3453 41.2249 93.221 41.157 93.1133C41.089 93.0056 40.9921 92.921 40.8661 92.8597C40.7418 92.7984 40.5935 92.7678 40.4212 92.7678H39.5188V94.12ZM39.5188 92.0394H40.3168C40.4643 92.0394 40.5952 92.0137 40.7095 91.9624C40.8255 91.9093 40.9167 91.8348 40.983 91.7386C41.0509 91.6425 41.0849 91.5273 41.0849 91.3931C41.0849 91.2092 41.0194 91.0608 40.8885 90.9482C40.7592 90.8355 40.5753 90.7791 40.3366 90.7791H39.5188V92.0394ZM47.7487 92.4545C47.7487 93.0097 47.6434 93.482 47.433 93.8714C47.2242 94.2609 46.9391 94.5584 46.5779 94.7638C46.2182 94.9677 45.8139 95.0696 45.3648 95.0696C44.9124 95.0696 44.5064 94.9669 44.1468 94.7614C43.7871 94.5559 43.5029 94.2584 43.2941 93.869C43.0853 93.4795 42.9809 93.008 42.9809 92.4545C42.9809 91.8994 43.0853 91.4271 43.2941 91.0376C43.5029 90.6482 43.7871 90.3516 44.1468 90.1477C44.5064 89.9422 44.9124 89.8395 45.3648 89.8395C45.8139 89.8395 46.2182 89.9422 46.5779 90.1477C46.9391 90.3516 47.2242 90.6482 47.433 91.0376C47.6434 91.4271 47.7487 91.8994 47.7487 92.4545ZM46.6574 92.4545C46.6574 92.0949 46.6035 91.7917 46.4958 91.5447C46.3898 91.2978 46.2398 91.1106 46.0459 90.983C45.852 90.8554 45.625 90.7915 45.3648 90.7915C45.1046 90.7915 44.8776 90.8554 44.6837 90.983C44.4898 91.1106 44.339 91.2978 44.2313 91.5447C44.1252 91.7917 44.0722 92.0949 44.0722 92.4545C44.0722 92.8142 44.1252 93.1174 44.2313 93.3643C44.339 93.6113 44.4898 93.7985 44.6837 93.9261C44.8776 94.0537 45.1046 94.1175 45.3648 94.1175C45.625 94.1175 45.852 94.0537 46.0459 93.9261C46.2398 93.7985 46.3898 93.6113 46.4958 93.3643C46.6035 93.1174 46.6574 92.8142 46.6574 92.4545ZM53.2243 92.4545C53.2243 93.0097 53.119 93.482 52.9086 93.8714C52.6998 94.2609 52.4147 94.5584 52.0534 94.7638C51.6938 94.9677 51.2895 95.0696 50.8404 95.0696C50.388 95.0696 49.9819 94.9669 49.6223 94.7614C49.2627 94.5559 48.9785 94.2584 48.7697 93.869C48.5609 93.4795 48.4565 93.008 48.4565 92.4545C48.4565 91.8994 48.5609 91.4271 48.7697 91.0376C48.9785 90.6482 49.2627 90.3516 49.6223 90.1477C49.9819 89.9422 50.388 89.8395 50.8404 89.8395C51.2895 89.8395 51.6938 89.9422 52.0534 90.1477C52.4147 90.3516 52.6998 90.6482 52.9086 91.0376C53.119 91.4271 53.2243 91.8994 53.2243 92.4545ZM52.133 92.4545C52.133 92.0949 52.0791 91.7917 51.9714 91.5447C51.8654 91.2978 51.7154 91.1106 51.5215 90.983C51.3276 90.8554 51.1006 90.7915 50.8404 90.7915C50.5802 90.7915 50.3532 90.8554 50.1593 90.983C49.9654 91.1106 49.8146 91.2978 49.7069 91.5447C49.6008 91.7917 49.5478 92.0949 49.5478 92.4545C49.5478 92.8142 49.6008 93.1174 49.7069 93.3643C49.8146 93.6113 49.9654 93.7985 50.1593 93.9261C50.3532 94.0537 50.5802 94.1175 50.8404 94.1175C51.1006 94.1175 51.3276 94.0537 51.5215 93.9261C51.7154 93.7985 51.8654 93.6113 51.9714 93.3643C52.0791 93.1174 52.133 92.8142 52.133 92.4545ZM53.5953 90.7965V89.9091H57.7764V90.7965H56.2178V95H55.1539V90.7965H53.5953ZM61.2267 91.3732C61.2068 91.1727 61.1214 91.0169 60.9706 90.9059C60.8198 90.7949 60.6151 90.7393 60.3566 90.7393C60.181 90.7393 60.0326 90.7642 59.9117 90.8139C59.7907 90.862 59.6979 90.9291 59.6333 91.0153C59.5703 91.1014 59.5388 91.1992 59.5388 91.3086C59.5355 91.3997 59.5545 91.4793 59.596 91.5472C59.6391 91.6152 59.6979 91.674 59.7725 91.7237C59.847 91.7718 59.9332 91.814 60.031 91.8505C60.1288 91.8853 60.2332 91.9151 60.3442 91.94L60.8016 92.0494C61.0236 92.0991 61.2275 92.1654 61.4131 92.2482C61.5987 92.3311 61.7594 92.433 61.8953 92.554C62.0312 92.675 62.1365 92.8175 62.211 92.9815C62.2873 93.1456 62.3262 93.3337 62.3279 93.5458C62.3262 93.8574 62.2467 94.1275 62.0892 94.3562C61.9334 94.5832 61.7081 94.7597 61.4131 94.8857C61.1198 95.0099 60.766 95.0721 60.3517 95.0721C59.9407 95.0721 59.5827 95.0091 59.2778 94.8832C58.9745 94.7572 58.7375 94.5708 58.5669 94.3239C58.3978 94.0753 58.3092 93.7679 58.3009 93.4016H59.3424C59.354 93.5723 59.4029 93.7148 59.4891 93.8292C59.5769 93.9419 59.6937 94.0272 59.8396 94.0852C59.9871 94.1416 60.1536 94.1697 60.3392 94.1697C60.5215 94.1697 60.6798 94.1432 60.814 94.0902C60.9499 94.0372 61.0551 93.9634 61.1297 93.869C61.2043 93.7745 61.2416 93.666 61.2416 93.5433C61.2416 93.429 61.2076 93.3329 61.1396 93.255C61.0734 93.1771 60.9756 93.1108 60.8463 93.0561C60.7187 93.0014 60.5621 92.9517 60.3765 92.907L59.8222 92.7678C59.393 92.6634 59.0541 92.5001 58.8055 92.2781C58.5569 92.056 58.4334 91.7569 58.4351 91.3807C58.4334 91.0724 58.5155 90.8031 58.6812 90.5728C58.8486 90.3424 59.0781 90.1626 59.3698 90.0334C59.6614 89.9041 59.9929 89.8395 60.3641 89.8395C60.7419 89.8395 61.0717 89.9041 61.3534 90.0334C61.6368 90.1626 61.8572 90.3424 62.0146 90.5728C62.1721 90.8031 62.2533 91.07 62.2583 91.3732H61.2267ZM62.858 90.7965V89.9091H67.0391V90.7965H65.4805V95H64.4165V90.7965H62.858ZM67.7276 95V89.9091H69.7362C70.1206 89.9091 70.4487 89.9779 70.7205 90.1154C70.994 90.2513 71.2019 90.4444 71.3445 90.6946C71.4886 90.9432 71.5607 91.2357 71.5607 91.5721C71.5607 91.9102 71.4878 92.201 71.342 92.4446C71.1961 92.6866 70.9848 92.8722 70.7081 93.0014C70.433 93.1307 70.0999 93.1953 69.7088 93.1953H68.364V92.3303H69.5348C69.7403 92.3303 69.911 92.3021 70.0469 92.2457C70.1828 92.1894 70.2839 92.1049 70.3501 91.9922C70.4181 91.8795 70.4521 91.7395 70.4521 91.5721C70.4521 91.4031 70.4181 91.2605 70.3501 91.1445C70.2839 91.0285 70.1819 90.9407 70.0444 90.881C69.9085 90.8197 69.737 90.7891 69.5298 90.7891H68.804V95H67.7276ZM70.4769 92.6832L71.7422 95H70.554L69.3161 92.6832H70.4769ZM73.1989 95H72.0455L73.8029 89.9091H75.19L76.945 95H75.7915L74.5163 91.0724H74.4766L73.1989 95ZM73.1268 92.9989H75.8512V93.8391H73.1268V92.9989ZM77.5577 95V89.9091H79.5662C79.9524 89.9091 80.2813 89.9828 80.5531 90.1303C80.8249 90.2762 81.032 90.4792 81.1745 90.7393C81.3187 90.9979 81.3908 91.2962 81.3908 91.6342C81.3908 91.9723 81.3179 92.2706 81.1721 92.5291C81.0262 92.7876 80.8149 92.989 80.5382 93.1332C80.2631 93.2773 79.93 93.3494 79.5389 93.3494H78.2587V92.4869H79.3649C79.572 92.4869 79.7427 92.4512 79.877 92.38C80.0128 92.3071 80.1139 92.2068 80.1802 92.0792C80.2482 91.9499 80.2821 91.8016 80.2821 91.6342C80.2821 91.4652 80.2482 91.3177 80.1802 91.1918C80.1139 91.0642 80.0128 90.9656 79.877 90.896C79.7411 90.8247 79.5687 90.7891 79.3599 90.7891H78.6341V95H77.5577Z" fill="black"/>
</svg>
